<svg xmlns="http://www.w3.org/2000/svg" xmlns:xlink="http://www.w3.org/1999/xlink" overflow="hidden" viewBox="0 0 128 128" width="36px" height="36px" color="#fb7299"><g transform="translate(-1749 -1067)"><path d="M1803.65 1128.21C1800.35 1135.28 1797.39 1129.94 1797.39 1129.94L1795.18 1131.37C1795.18 1131.37 1799.54 1137.32 1803.69 1132.8 1808.59 1137.32 1812.33 1131.34 1812.33 1131.34L1810.32 1130.04C1810.32 1130.01 1806.82 1135.08 1803.65 1128.21ZM1811.38 1114.77 1810.32 1119.84 1823.72 1122.42 1824.85 1117.36ZM1796.37 1114.77 1782.87 1117.36 1784.02 1122.42 1797.39 1119.84ZM1779.61 1105.62 1827.53 1105.62C1828.98 1105.62 1830.08 1106.73 1830.08 1108.22L1830.08 1139.99C1830.08 1141.48 1828.98 1142.57 1827.53 1142.57L1779.61 1142.57C1778.15 1142.57 1776.92 1141.48 1776.92 1139.99L1776.92 1108.22C1776.92 1106.73 1778.15 1105.62 1779.61 1105.62ZM1789.12 1089.53C1788.82 1089.51 1788.38 1089.71 1787.55 1090.38 1785.92 1091.73 1786.88 1092.94 1786.88 1092.94L1793.09 1098.98C1786.34 1098.98 1780.52 1099.01 1777.82 1099.12 1769.09 1101.64 1769.77 1110.41 1769.77 1110.41 1769.77 1110.41 1769.87 1129.22 1769.77 1138.73 1770.72 1148.25 1778.04 1149.77 1778.04 1149.77 1778.04 1149.77 1780.95 1149.84 1783.11 1149.84 1783.33 1150.45 1783.5 1153.43 1786.84 1153.43 1790.14 1153.43 1790.57 1149.84 1790.57 1149.84 1790.57 1149.84 1814.88 1149.74 1816.91 1149.74 1817.01 1150.77 1817.51 1153.5 1820.85 1153.46 1824.15 1153.39 1824.4 1149.52 1824.4 1149.52 1824.4 1149.52 1825.53 1149.42 1828.9 1149.52 1836.79 1148.07 1837.25 1138.84 1837.25 1138.84 1837.25 1138.84 1837.1 1119.85 1837.21 1110.4 1837 1100.96 1828.76 1099.15 1828.76 1099.15 1828.76 1099.15 1822.34 1099.12 1814 1099.04L1820.07 1093.19C1820.07 1093.19 1821.02 1091.98 1819.39 1090.63 1817.76 1089.28 1817.65 1089.88 1817.08 1090.23 1816.59 1090.59 1809.31 1097.71 1808.03 1098.99 1804.73 1098.99 1801.29 1098.94 1797.95 1098.94L1799.12 1098.94C1799.12 1098.94 1790.43 1090.37 1789.86 1089.98 1789.57 1089.78 1789.41 1089.55 1789.12 1089.53ZM1803.5 1067C1833.6 1067 1858 1091.4 1858 1121.5 1858 1151.6 1833.6 1176 1803.5 1176 1773.4 1176 1749 1151.6 1749 1121.5 1749 1091.4 1773.4 1067 1803.5 1067Z" fill="currentColor" fill-rule="evenodd"/></g></svg>